/* XPM */
static char *_dfb11e056d14b6cc44ea151b25cb735[] = {
/* columns rows colors chars-per-pixel */
"64 64 211 2 ",
"   c #000000",
".  c #090703",
"X  c #0C0A04",
"o  c #0C0B09",
"O  c #120E05",
"+  c #110F0B",
"@  c #0F100D",
"#  c #151107",
"$  c #14120C",
"%  c #1B160B",
"&  c #1E190C",
"*  c #1A1407",
"=  c #1C1A12",
"-  c #1A1913",
";  c #241D0C",
":  c #221D12",
">  c #2C240E",
",  c #34290F",
"<  c #262114",
"1  c #2C2514",
"2  c #26251A",
"3  c #2B261A",
"4  c #2D291D",
"5  c #2F2B16",
"6  c #302711",
"7  c #342B13",
"8  c #392E14",
"9  c #342D1B",
"0  c #382F1B",
"q  c #3D3114",
"w  c #3C331C",
"e  c #36331E",
"r  c #2B2821",
"t  c #342F23",
"y  c #353123",
"u  c #3C3523",
"i  c #3D3926",
"p  c #3B3629",
"a  c #3F3A29",
"s  c #373329",
"d  c #3C3E30",
"f  c #423516",
"g  c #463817",
"h  c #4A3B16",
"j  c #41361C",
"k  c #45391B",
"l  c #4A3D1C",
"z  c #503E16",
"x  c #413720",
"c  c #433A24",
"v  c #493E24",
"b  c #443D2A",
"n  c #483F2A",
"m  c #4E401D",
"M  c #53431C",
"N  c #5A471B",
"B  c #5B491E",
"V  c #614E1E",
"C  c #4D4125",
"Z  c #4C422C",
"A  c #4E492C",
"S  c #43422E",
"D  c #544523",
"F  c #554826",
"G  c #5C4C24",
"H  c #51462C",
"J  c #544A2D",
"K  c #5B4C2A",
"L  c #5F512B",
"P  c #4C4534",
"I  c #4D4B34",
"U  c #4E4E3A",
"Y  c #434231",
"T  c #514730",
"R  c #534B32",
"E  c #594D32",
"W  c #564C39",
"Q  c #545135",
"!  c #5C5134",
"~  c #55523A",
"^  c #5B543B",
"/  c #5E5A3B",
"(  c #5E5836",
")  c #614E23",
"_  c #655223",
"`  c #6A5525",
"'  c #6D5824",
"]  c #64542B",
"[  c #695629",
"{  c #6D592B",
"}  c #725C26",
"|  c #725E2C",
" . c #785F22",
".. c #645533",
"X. c #6B5B33",
"o. c #635B3C",
"O. c #6A5C3D",
"+. c #645838",
"@. c #715F34",
"#. c #796127",
"$. c #75602D",
"%. c #7B642C",
"&. c #776027",
"*. c #65613C",
"=. c #6E633D",
"-. c #6D6336",
";. c #746234",
":. c #7E6935",
">. c #73623C",
",. c #79673A",
"<. c #7C6A3A",
"1. c #786434",
"2. c #7D703D",
"3. c #5D5C42",
"4. c #575740",
"5. c #635C42",
"6. c #6A5F44",
"7. c #636245",
"8. c #64624A",
"9. c #6D6C4D",
"0. c #696646",
"q. c #746B44",
"w. c #7B6C40",
"e. c #706C4B",
"r. c #736646",
"t. c #797448",
"y. c #6C6C51",
"u. c #787755",
"i. c #7A7957",
"p. c #81662A",
"a. c #846B2D",
"s. c #896E2D",
"d. c #826727",
"f. c #8D712E",
"g. c #93762F",
"h. c #836C34",
"j. c #886E31",
"k. c #826E3C",
"l. c #8C7233",
"z. c #8B733C",
"x. c #8F7A3B",
"c. c #877137",
"v. c #917533",
"b. c #957934",
"n. c #9B7D35",
"m. c #947A3A",
"M. c #9A7D3A",
"N. c #907739",
"B. c #806D40",
"V. c #847444",
"C. c #8E7A42",
"Z. c #81744C",
"A. c #8C794B",
"S. c #877846",
"D. c #957E41",
"F. c #827D56",
"G. c #9F8036",
"H. c #9D813B",
"J. c #A48335",
"K. c #AA8737",
"L. c #AC8936",
"P. c #A3843A",
"I. c #AB8B3D",
"U. c #A7893C",
"Y. c #B18E3A",
"T. c #B38E37",
"R. c #B5923E",
"E. c #BB953B",
"W. c #BE983D",
"Q. c #C39C3E",
"!. c #C89F3F",
"~. c #9D8543",
"^. c #888659",
"/. c #958854",
"(. c #9B9156",
"). c #A68B45",
"_. c #AD924D",
"`. c #B59341",
"'. c #BE9A44",
"]. c #BE9E4B",
"[. c #B69847",
"{. c #A39354",
"}. c #A2975C",
"|. c #B69E56",
" X c #B8A458",
".X c #9A9865",
"XX c #A09B65",
"oX c #ACA96C",
"OX c #B6A766",
"+X c #BFB46E",
"@X c #B0AD77",
"#X c #B4B378",
"$X c #A9AA76",
"%X c #C49D43",
"&X c #C29F48",
"*X c #C7A145",
"=X c #C5A049",
"-X c #D5AA44",
";X c #C6A95B",
":X c #D4BD67",
">X c #C0BB79",
",X c #C8B86D",
"<X c #E2C974",
"1X c #C8C884",
"2X c #DAD184",
"3X c #D8D38B",
"4X c #E6DC88",
"5X c #EFE08C",
"6X c #EAE392",
"7X c #F3E690",
"8X c #F6F19C",
/* pixels */
"                                                                                                                                ",
"                                                                                                                                ",
"                                                                                                                                ",
"                                                                                                                                ",
"                                                                                                                                ",
"                                                                                                                                ",
"                                                                                                                                ",
"                                                                                                                                ",
"                                                    ; C <.}.#XoX{.M.h._ h ;                                                     ",
"                                              > | G.H.M.k.*.Q i w j M ' l.J.n.} 1                                               ",
"                                          f n.M.} 7 7 $   g o     .       O 6 | U.b.f                                           ",
"                                      1 l.b.M h o   > <.= h..   l s.} 3     %   . M U.n.7                                       ",
"                                    ' P.&.9   x.:     7 ).C     ' | > +   V v.a.9     ` `.}                                     ",
"                                % s.a.# O j.[ l.:       f <   ; 8 ) ` =   v.F a.X.  . ] w v.[.<                                 ",
"                              > l.N.]       M P.= ; C b 1X3XI H.=XD M U.] 1 p.[ X   h...    t.6Xi                               ",
"                            ; b.x.x.7   .     1 m '._.Z t.9.Q A J v g ` G l J.|   w m.    j # 7.5Xu                             ",
"                          * H.w 2./.  -.*.% J.n.w f q l l R o.7./ E H v j w D _ l U.w   O. X{.- *.:X&                           ",
"                        . l.]     /.+X{.| l ` g f f g l C k./.P *.^ H C C C v u x } :.9 S.  (.^.  :.U..                         ",
"                        ` j.        e b.n.w 8 g g j 8 x Z { C.P ^ Y 3.Q H Z v C Z v 3 | p.Q OX+     b.%.                        ",
"                      , G.:       % l M k l l j f f l h.N.K.[.].;XOX0.3.Q R Z S v Z b c j.] o .     & R.q                       ",
"                      l.K       * Y.h.9 v j q w h j B Q.L.s.} ` %.~.( 9.i.7.R R Z H h.E b j M.=       _ P.                      ",
"                    l H.o       q { w ] | { { a.{ | l 7 .             . y e.u.^ E R h...E n g.@.  .   . I.M                     ",
"                    m.K       ;.z.3 v %.| %.| a._ 7           .             P i.5.~ ).o.n W n n C       G I.                    ",
"                  8 ).%     2 4X=.Z v x x C v 1   =                       $ = y y.3.Z.5.n E n n '.1     X [.w                   ",
"                  %.<.      I 3.^ ^ A C K v : o ) u   O # # O # # # # # O   X.Z b 8.$XF.4.W n n %.c       %.c.                  ",
"                X P.c     5 4X3.8.7.^ ~ J 0 : ..+.. ) N g h M M M M h f { s & r.P n ^.y.6.4.4.4.y | 1     q U..                 ",
"                > ).$     ] {.I 7.4.7.9.W r J ..x   W . z p.s.f.f.a.%.: : Y   E r.x (.r.8.8.5.n p Y.1.    X G.>                 ",
"                M m.      j x R ~ ~ 9.8.I b O.@.+   P 9 Q.n.Q.Q.Q.T.T.C.3 Y   0 O.5.t +.4.8.8.b - X.L       d.M                 ",
"                } 1.    ; Y.T H P R 7.5.d v X.J   . P k j.[ D L.h.N } ,.t b   = +.w.: s ~ 5.4.U U i 5 1 7 o B '                 ",
"                v.K     8 n.b H b R ^ ^ y y A.9     T v v.f 0 M.@.6 G c.p b     J Z.r x R ^ S S U ^ Z j C y l %.                ",
"                n.C     * Z b J v H R W < ~ J p     P v ).} | z.k.} p.c.u p     W n T u R c Z c J I ^.+Xr.c f a.                ",
"                U.c     B M.b H b R A u   X.O.t     U j n.T.N.c.k.M.Y.h.s s     H V.w 3 R 3 5 w k k i.1X9.b 8 a.                ",
"              . U.c     } c.c H v H c u o x A.s     n b b ) h.x D j.v u n r   @ R B.3 4 E x 8 j h k ,.,X^.U 0 j.                ",
"                U.H     & n b R n s 9 x % ^ n ^ o   s n @.] ` | ` ` @.K H +   1 ^ D u . b K s.K.I.F D ~.=.Y w j.                ",
"                P...    8 M.b R T 3 $ D : ; k.r.t   X ^ v `.'.c d.%Xm.x H   + T ,.@.. h j.) L.E.%X{ 8 w C i l a.                ",
"                v.C.    , U.b H n c 6 l v o H O.6.r   9 R V &X-  .`.7 K +   n +.` t . : 6 l b.J.n.G 8 g m 3 G $.                ",
"                | |.    . j u T n n R T w . 0 O.E O.+   c R ) v ` k G &   9 >.M | # - w j k l M l g g l F 3 $.G                 ",
"                v <X:     V ;.b R n T R Z y   h <.5.5.r   1 E 0 q M +   l E { %.:   u H v C w ; 1 g w X % & N.8                 ",
"                & 8X3.    g l.s T n n W R E x   l } ` k.y X 7 [ G ; + h %.V } 1   9 v v J x   : Z L.K     > H.#                 ",
"                  1X@X    . w u n P n n ,...R 9   8 ) N s.%.B 6 u ] h.h.G _ 1   ; c v H n .   c j l.o     _ h.                  ",
"                  e.5X-     q l.b P n b X.+.Z 3 : o : l f l <     u v 6 q # o 5 S C C C _ G 5 c { =     . H.l                   ",
"                  % <X>.    . s.n u n b | ..T :   $ $     .         X   < S Q I ( C C w :.| i %.R.$     g H.X                   ",
"                    h.;X$     X v n n b K K b E 1 # G h.) D 8 1 7 f _ <.2.I / .X$XXX(.x.[ i 1 ' 5       N.L                     ",
"                    % &XX.      z b.p p K X.x v H n G c.v.-X!.Q.Q.!.-X@.8 A J t.7.^.e.=.J m H.e       l H.O                     ",
"                      V &X3       M c t p c x x c v D D ) } #.%.} ) N l h C F C A Q 3.3.4 H.h.      * n.l                       ",
"                      . n.~.o       f m.n y b x u w c v x 9 y v J u u 8 g f w k A / Q t.#Xr         %.a.                        ",
"                        ; %X,.    = . h K w u u v x w w j b b g.M.c v f q f g l k 5 A 5X^.    .   M n.%                         ",
"                          f *XK . o.I .   } j.x 3 0 u k j j D ) M l f f g f 8 7 _ U.A *         f J.7                           ",
"                            B *XL @ F.R     f 0 } [ 0 5 9 8 w 7 q f 8 7 8 M | l a.B . X e.o   q P.g                             ",
"                              B *X[ = X $ e o   , #.w ) p.v f _ l q p.a.f g.g.1     v H 3 % h U.f                               ",
"                                h '.N.% 1 >.K 4       ; N 8 8 s.| 1 } _ +       & c F D O } n.8                                 ",
"                                  > J.'.K % : ..Z k :                   * ; w ;.u w % f b.h.;                                   ",
"                                    X ` :X2X9.= : j c X.v   X 0 9 j D . % Z ; w O q a.n.M                                       ",
"                                        5 $X8X<XV.w $ % :     D C 1 j .   * ; M l.n._ #                                         ",
"                                            3 t.|.].I.l.[ m 8 : ; 7 g ) %.v.n.a.M #                                             ",
"                                                  > M d.b.U.Y.Y.Y.U.G.j.` g %                                                   ",
"                                                            O * * O                                                             ",
"                                                                                                                                ",
"                                                                                                                                ",
"                                                                                                                                ",
"                                                                                                                                ",
"                                                                                                                                ",
"                                                                                                                                ",
"                                                                                                                                "
};
