/* XPM */
static char *_8d5383c47ee483d904a8db0612c63dc[] = {
/* columns rows colors chars-per-pixel */
"32 32 121 2 ",
"   c #000000",
".  c #080602",
"X  c #0C0A05",
"o  c #0B0B0A",
"O  c #110E05",
"+  c #110F0A",
"@  c #151107",
"#  c #14110A",
"$  c #1A1509",
"%  c #1E190C",
"&  c #1B1912",
"*  c #231D0D",
"=  c #221E15",
"-  c #2C230E",
";  c #272012",
":  c #2B2412",
">  c #252119",
",  c #2B261A",
"<  c #2E291D",
"1  c #312710",
"2  c #332A14",
"3  c #392E14",
"4  c #332C1A",
"5  c #3C3116",
"6  c #35301C",
"7  c #3A321C",
"8  c #2F2E22",
"9  c #343322",
"0  c #3B3524",
"q  c #3F3821",
"w  c #423516",
"e  c #443719",
"r  c #45391B",
"t  c #4B3D1B",
"y  c #423720",
"u  c #443A24",
"i  c #4A3E21",
"p  c #463E2B",
"a  c #4F411E",
"s  c #53431D",
"d  c #58471F",
"f  c #5A491E",
"g  c #4D4123",
"h  c #47442B",
"j  c #4C432D",
"k  c #4F492C",
"l  c #534523",
"z  c #574826",
"x  c #5B4B23",
"c  c #52462C",
"v  c #55492A",
"b  c #5C4D2C",
"n  c #5E512C",
"m  c #474330",
"M  c #494733",
"N  c #494832",
"B  c #4B4939",
"V  c #554B31",
"C  c #5A4E32",
"Z  c #514E38",
"A  c #5B5232",
"S  c #54533D",
"D  c #5B543C",
"F  c #5B593C",
"G  c #604E21",
"H  c #645225",
"J  c #6B5625",
"K  c #6F5A27",
"L  c #64542B",
"P  c #68562B",
"I  c #6D5A2B",
"U  c #725C26",
"Y  c #785F23",
"T  c #715C2A",
"R  c #645533",
"E  c #685733",
"W  c #645B33",
"Q  c #6B5C33",
"!  c #655D3C",
"~  c #685A3A",
"^  c #725E30",
"/  c #76612D",
"(  c #7A632C",
")  c #6C6035",
"_  c #6D643B",
"`  c #756130",
"'  c #7A6633",
"]  c #72653E",
"[  c #72693E",
"{  c #5D5D44",
"}  c #605D41",
"|  c #656242",
" . c #696646",
".. c #6F6C45",
"X. c #68654C",
"o. c #6C6C4C",
"O. c #736C43",
"+. c #796C43",
"@. c #7E794E",
"#. c #7F7F55",
"$. c #876C2C",
"%. c #886D2E",
"&. c #846D34",
"*. c #896F30",
"=. c #836D38",
"-. c #927839",
";. c #857643",
":. c #897742",
">. c #857D4D",
",. c #8C7F4E",
"<. c #817D52",
"1. c #9B813D",
"2. c #A88736",
"3. c #B18D39",
"4. c #9D8343",
"5. c #87845D",
"6. c #8D8C5E",
"7. c #948753",
"8. c #928954",
"9. c #9C9661",
"0. c #A29E65",
/* pixels */
"                                                                ",
"                                                                ",
"                                                                ",
"                            . # O .                             ",
"                      @ w x _ ..v d d w @                       ",
"                  @ s J 5 7 7 X 2 * O r G f @                   ",
"                1 H t x + O n X U 2 - ( # e ( 7                 ",
"              5 1.=   a x L #._ L G x T : r # >.F               ",
"            3 s k [ b f s r v ! M i i i P r E ! ) e             ",
"          @ H   + I x 5 3 x -.4.,. .V u u z Q 6   U $           ",
"          x :   d x l H x G f 3 i 0 { { C E c z   - H           ",
"        % P   A ~ r P x 3           . M  .+.p R t   K *         ",
"        a 4 X <.{ V q < 7 * - 2 2 - ; u D 5.Z V P   5 s         ",
"        H X : ] S o.m R = 0 $.2.2.( < < ! ! X.B n 1 . x         ",
"      . I   s v k F m v . c T ' T I 0 . A 0 D B M q 4 s .       ",
"      O I   l c j p q j   j %.' ' &.0   V p u 4 p 0.! s X       ",
"      @ I   z V p 4 7 D   0 ^ I T E < o R 4 h U G ;.| l O       ",
"      X `   s C y 3 = ~ 8 # =./ *.P o y n % x 3.%.5 i x .       ",
"        :.# - C p V < 4 O.= = l t # 4 / ; 4 g 5 t 5 4 x         ",
"        @.S . z p c R , 5 T a t r l J - % c 6 + P # - t         ",
"        q 7.  t j p ~ u . * : . o 4 4 9 A z x l l   H *         ",
"          =.4   G p v p 4 n ( U Y / c O.6.O.x x . % H           ",
"          * =.. @ i p y i l n / T l w i h o...;   J %           ",
"            s I o 4 w c q 7 2 l l 2 w w H ) 8   s w             ",
"              G &.< @ - t r a a s f s s 2 ; & s s               ",
"                s ( v , $ * ; : - 1 % ; = l J w                 ",
"                  ; 8.9.n r + + 2 $ * s H f %                   ",
"                      0 L K K J J J G e *                       ",
"                            O $ $ X                             ",
"                                                                ",
"                                                                ",
"                                                                "
};
