/* XPM */
static char *_2ee96abe15c4d78ff3a3eee1533008e[] = {
/* columns rows colors chars-per-pixel */
"16 16 144 2 ",
"   c black",
".  c #010100",
"X  c #040301",
"o  c #10100A",
"O  c #0D0B06",
"+  c #030301",
"@  c #010000",
"#  c #080602",
"$  c #322811",
"%  c #3C3117",
"&  c #413A21",
"*  c #393017",
"=  c #382D13",
"-  c #302610",
";  c #090702",
":  c #181409",
">  c #4D411F",
",  c #433619",
"<  c #3E351D",
"1  c #4B452B",
"2  c #473A1A",
"3  c #50401D",
"4  c #423618",
"5  c #534A28",
"6  c #1D1C12",
"7  c #0C0A04",
"8  c #4C4324",
"9  c #50421F",
"0  c #584720",
"q  c #847340",
"w  c #6D643F",
"e  c #54492B",
"r  c #4F4122",
"t  c #534C2D",
"y  c #41391D",
"u  c #0D0903",
"i  c #2E2611",
"p  c #262213",
"a  c #504323",
"s  c #5B4A23",
"d  c #392F14",
"f  c #1F1708",
"g  c #18160E",
"h  c #3E3D2B",
"j  c #6B6140",
"k  c #504326",
"l  c #241D0C",
"z  c #342B13",
"x  c #070602",
"c  c #312812",
"v  c #484229",
"b  c #676346",
"n  c #473E27",
"m  c #2A2415",
"M  c #55441B",
"N  c #504019",
"B  c #2E281A",
"V  c #676043",
"C  c #655E43",
"Z  c #39301B",
"A  c #302710",
"S  c #070502",
"D  c #110E06",
"F  c #332A13",
"G  c #473C21",
"H  c #534C35",
"J  c #413B28",
"K  c #332B1A",
"L  c #8A7034",
"P  c #826B34",
"I  c #2B261A",
"U  c #463D28",
"Y  c #443E2C",
"T  c #5B5638",
"R  c #524727",
"E  c #080501",
"W  c #131007",
"Q  c #392E16",
"!  c #493E25",
"~  c #3D3421",
"^  c #3F3621",
"/  c #2D281D",
"(  c #705D2E",
")  c #685529",
"_  c #2C2619",
"`  c #645022",
"'  c #756331",
"]  c #564C2B",
"[  c #080601",
"{  c #0A0904",
"}  c #4E482C",
"|  c #382F1A",
" . c #544A31",
".. c #423922",
"X. c #42371F",
"o. c #3C321A",
"O. c #3C3118",
"+. c #43361A",
"@. c #342B17",
"#. c #463B1F",
"$. c #3A2F16",
"%. c #352B14",
"&. c #060502",
"*. c #494126",
"=. c #292211",
"-. c #4C4027",
";. c #4C422A",
":. c #382E18",
">. c #4D3E1A",
",. c #483B1A",
"<. c #4D482C",
"1. c #69623E",
"2. c #554625",
"3. c #241E0E",
"4. c #130F06",
"5. c #473A1B",
"6. c #292415",
"7. c #41371F",
"8. c #493E23",
"9. c #67552A",
"0. c #614F25",
"q. c #4B3E1C",
"w. c #635D39",
"e. c #2D2A1A",
"r. c #32270F",
"t. c #100D06",
"y. c #1F190A",
"u. c #584A25",
"i. c #403820",
"p. c #322915",
"a. c #2E2612",
"s. c #372D13",
"d. c #392D14",
"f. c #3F331A",
"g. c #3F3418",
"h. c #171207",
"j. c #0E0B04",
"k. c #534E30",
"l. c #524524",
"z. c #3C3116",
"x. c #403418",
"c. c #362C13",
"v. c #151107",
"b. c #020101",
/* pixels */
"          .         .           ",
"            X o O +     @       ",
"        # $ % & * = - ;         ",
"      : > , < 1 2 3 4 5 6   @   ",
"    7 $ 8 9 0 q w e r t y u     ",
".   i p a s d f g h j k l z   . ",
"  x c v b n m M N B V C Z A S   ",
"  D F G H J K L P I U Y T R E   ",
"  W Q ! ~ ^ / ( ) _ ^ ` ' ] [   ",
"  { } |  ...X.o.O.+.@.#.$.%.&.  ",
".   *.=.-.;.:.>.,.<.1.2.3.i   . ",
"    4.5.6.7.8.9.0.q.w.e.r.t.    ",
"  @   y.u.i.p.a.s.d.f.g.h.      ",
"    .   j.k.l.z.x.z.c.7         ",
"      @     S v.4.&.            ",
"          b.        .           "
};
